<svg width="24" height="24" viewBox="0 0 24 24" fill="none" xmlns="http://www.w3.org/2000/svg">
<path fill-rule="evenodd" clip-rule="evenodd" d="M5.84029 9.85617C7.6276 13.7481 10.8081 16.8422 14.7619 18.5188L14.7743 18.5241L15.5382 18.8646C16.5108 19.2979 17.654 18.9901 18.2776 18.1271L19.552 16.3633C19.6298 16.2556 19.6098 16.1058 19.5063 16.0223L17.2816 14.2275C17.171 14.1383 17.0084 14.1591 16.9237 14.2732L16.0579 15.4416C15.8476 15.7254 15.4678 15.824 15.1461 15.6784C12.1897 14.3404 9.81397 11.9647 8.47604 9.00832C8.33043 8.68656 8.42902 8.30681 8.71278 8.09653L9.88115 7.23067C9.99532 7.14606 10.0161 6.98343 9.92688 6.87284L8.13184 4.6478C8.04841 4.54438 7.89866 4.52429 7.79093 4.60207L6.01764 5.88222C5.14885 6.50941 4.84289 7.66226 5.28635 8.63771L5.83969 9.85487C5.83989 9.8553 5.84009 9.85574 5.84029 9.85617ZM14.1699 19.8971C9.87392 18.0735 6.41856 14.7105 4.47651 10.4808L4.47534 10.4782L3.92084 9.2585C3.18174 7.63275 3.69167 5.71134 5.13965 4.66603L6.91294 3.38587C7.66706 2.84146 8.71529 2.98207 9.29929 3.70596L11.0943 5.931C11.7189 6.70517 11.5734 7.84357 10.7743 8.43581L10.1048 8.93196C11.2357 11.1264 13.0281 12.9187 15.2224 14.0497L15.7186 13.3801C16.3108 12.581 17.4492 12.4355 18.2234 13.0601L20.4481 14.8549C21.1723 15.439 21.3127 16.4877 20.7678 17.2418L19.4934 19.0055C18.4541 20.444 16.5487 20.957 14.9277 20.2347L14.1699 19.8971Z" fill="#0063E3"/>
</svg>
