<svg width="38" height="27" viewBox="0 0 38 27" fill="none" xmlns="http://www.w3.org/2000/svg">
<g clip-path="url(#clip0_114_198)">
<path d="M0.306771 1.97949C0.207812 2.27938 0.108854 2.60926 0 2.92914C0 9.97653 0 17.0239 0 24.0713C0.108854 24.4012 0.217708 24.7311 0.296875 24.961C4.12656 21.1224 7.94635 17.3038 11.7859 13.4652C7.96614 9.63666 4.14635 5.81807 0.306771 1.97949Z" fill="#0063E3"/>
<path d="M37.7131 2.03955C33.8834 5.86813 30.0637 9.68672 26.2142 13.5353C30.034 17.3639 33.8538 21.1825 37.6933 25.031C37.7923 24.7311 37.9012 24.4013 38.0001 24.0814C38.0001 17.034 38.0001 9.98661 38.0001 2.93922C37.8913 2.59934 37.7923 2.27946 37.7131 2.03955Z" fill="#0063E3"/>
<path d="M17.9512 16.5341C18.634 17.2338 19.3663 17.2338 20.0491 16.5341C25.2939 11.236 30.5288 5.92798 35.7637 0.609955C35.8527 0.519988 35.9319 0.430021 36.0309 0.320062C35.4965 0.0701546 34.9621 0.000180538 34.4178 0.000180538C24.1361 0.000180538 13.8642 0.000180538 3.58243 0.000180538C3.43399 0.000180538 3.28556 -0.0198121 3.13712 0.0101768C2.76108 0.0901472 2.37514 0.180114 1.91003 0.280077C2.07826 0.46001 2.15743 0.539981 2.2267 0.619951C7.47149 5.91799 12.7163 11.226 17.9512 16.5341Z" fill="#0063E3"/>
<path d="M21.6026 18.1535C20.0589 19.7029 17.9313 19.7029 16.3974 18.1535C15.487 17.2338 14.5865 16.3142 13.6761 15.3945C13.587 15.3045 13.488 15.2146 13.4485 15.1846C9.60888 19.0231 5.79899 22.8317 1.9693 26.6703C2.49378 26.9402 3.02815 27.0002 3.57242 27.0002C13.8641 27.0002 24.1459 27.0002 34.4375 27.0002C34.586 27.0002 34.7344 27.0202 34.8828 26.9902C35.2589 26.9202 35.6349 26.8302 36.0901 26.7303C32.2011 22.8417 28.3912 19.0331 24.5615 15.2046C23.6016 16.1542 22.6021 17.1538 21.6026 18.1535Z" fill="#0063E3"/>
</g>
<defs>
<clipPath id="clip0_114_198">
<rect width="38" height="27" fill="white"/>
</clipPath>
</defs>
</svg>
