<svg width="39" height="39" viewBox="0 0 39 39" fill="none" xmlns="http://www.w3.org/2000/svg">
<g clip-path="url(#clip0_114_188)">
<path d="M29.7441 14.955C29.3397 14.2237 28.6985 13.8831 27.8798 13.8931C27.0512 13.8931 26.2325 13.8931 25.3448 13.8931C25.3448 13.7429 25.3448 13.6126 25.3448 13.4824C25.3448 12.691 25.3546 11.9096 25.3448 11.1181C25.3349 10.3968 24.9995 10.0662 24.2992 10.0562C23.7172 10.0562 23.1451 10.0462 22.5631 10.0562C21.9121 10.0662 21.5768 10.3968 21.5669 11.048C21.557 11.8494 21.5669 12.6509 21.5669 13.4523C21.5669 13.5826 21.5669 13.7228 21.5669 13.8731C20.2846 13.8731 19.0516 13.8731 17.7693 13.8731C17.7693 13.4022 17.7693 12.9514 17.7693 12.5106C17.7693 12.1099 17.7693 11.7092 17.7693 11.3085C17.7693 10.3267 17.5029 10.0562 16.5461 10.0562C16.0431 10.0562 15.54 10.0562 15.0271 10.0562C14.3268 10.0662 13.9914 10.4068 13.9815 11.1181C13.9717 11.9096 13.9815 12.691 13.9815 13.4824C13.9815 13.6026 13.9815 13.7228 13.9815 13.8931C13.2023 13.8931 12.4526 13.9232 11.7029 13.8831C10.6475 13.833 9.9373 14.2838 9.41451 15.2055C7.93491 17.8202 6.42573 20.4149 5.28151 23.1999C3.46655 27.5778 2.60838 32.1461 2.61825 36.8746C2.61825 37.9365 3.19036 38.5576 4.11757 38.8982C14.4747 38.8982 24.8319 38.8982 35.189 38.8982C35.2285 38.8782 35.2679 38.8381 35.3172 38.8281C36.2247 38.5176 36.6982 37.8564 36.6982 36.8846C36.708 31.2645 35.4849 25.9449 33.0091 20.9258C31.9931 18.8921 30.839 16.9386 29.7441 14.955ZM19.6434 35.0513C15.4808 35.0513 12.0778 31.575 12.0778 27.3474C12.0778 23.0897 15.5006 19.6435 19.6927 19.6635C23.8356 19.6836 27.2288 23.1498 27.2189 27.3574C27.2091 31.6051 23.806 35.0613 19.6434 35.0513Z" fill="#0063E3"/>
<path d="M32.0324 2.70281C29.4382 1.55073 26.696 0.959669 23.8946 0.649108C23.0956 0.558946 22.3065 0.498837 21.5076 0.428711C20.3929 0.428711 19.2882 0.428711 18.1735 0.428711C17.3252 0.508855 16.4868 0.558946 15.6385 0.659127C12.1763 1.04983 8.83238 1.84126 5.7351 3.52429C4.12728 4.40588 2.67728 5.48784 1.65143 7.06067C1.1681 7.79199 0.90177 8.60346 0.714355 9.44497C0.714355 10.2264 0.714355 10.9978 0.714355 11.7792C0.734083 11.8393 0.763675 11.8894 0.783403 11.9495C1.09905 13.0415 2.17422 13.883 3.28885 13.883C4.90653 13.893 6.51436 13.903 8.13204 13.873C8.43782 13.873 8.7732 13.7728 9.03953 13.6225C10.3712 12.8812 10.6473 10.9076 10.1048 9.96591C9.31572 8.62349 10.2035 6.66997 11.8212 6.36943C12.9062 6.15905 14.0011 5.9687 15.096 5.82845C19.3375 5.26744 23.5593 5.51789 27.7416 6.38946C29.379 6.73008 30.1385 8.28288 29.4579 9.76555C29.3001 10.1062 29.1817 10.4969 29.1521 10.8675C29.0239 12.5406 30.2076 13.9832 31.8154 13.903C33.1667 13.8329 34.528 13.8529 35.8793 13.903C37.1025 13.9431 38.0001 13.4722 38.582 12.3803C38.582 11.148 38.582 9.92584 38.582 8.69362C37.4181 5.55796 34.8633 3.95507 32.0324 2.70281Z" fill="#0063E3"/>
<path d="M19.6333 23.5104C17.5422 23.5204 15.8653 25.2536 15.8752 27.3774C15.885 29.5012 17.6014 31.2244 19.6728 31.2043C21.7738 31.1843 23.4408 29.4612 23.431 27.3373C23.4211 25.2135 21.7146 23.4904 19.6333 23.5104Z" fill="#0063E3"/>
</g>
<defs>
<clipPath id="clip0_114_188">
<rect width="37.8776" height="38.4694" fill="white" transform="translate(0.714355 0.428711)"/>
</clipPath>
</defs>
</svg>
